<?xml version="1.0" encoding="UTF-8"?>
<!--Generator: Apple Native CoreSVG 341-->
<!DOCTYPE svg
PUBLIC "-//W3C//DTD SVG 1.1//EN"
       "http://www.w3.org/Graphics/SVG/1.1/DTD/svg11.dtd">
<svg version="1.1" xmlns="http://www.w3.org/2000/svg" xmlns:xlink="http://www.w3.org/1999/xlink" viewBox="0 0 3300 2200">
 <!--glyph: "", point size: 100.0, font version: "21.0d4e1", template writer version: "138.0.0"-->
 <style>.defaults {-sfsymbols-variable-value-mode:draw;-sfsymbols-draw-reverses-motion-groups:false}

.monochrome-0 {-sfsymbols-variable-threshold:0.51;-sfsymbols-variable-draw:0 0.5;-sfsymbols-motion-group:0;-sfsymbols-always-pulses:true;-sfsymbols-always-rotates:true;-sfsymbols-layer-tags:-6161b15220a6eb0a}
.monochrome-1 {-sfsymbols-variable-threshold:0.0;-sfsymbols-variable-draw:0.5 0.5;-sfsymbols-motion-group:0;-sfsymbols-always-pulses:true;-sfsymbols-always-rotates:true;-sfsymbols-layer-tags:-6161b15220a6eb0a}
.monochrome-2 {opacity:0.0;-sfsymbols-clear-behind:true;-sfsymbols-motion-group:0;-sfsymbols-layer-tags:-6161b15220a6eb0a}

.multicolor-0:quaternaryLabelColor {-sfsymbols-clear-behind:true;-sfsymbols-variable-threshold:0.76;-sfsymbols-variable-draw:0 0.25;-sfsymbols-motion-group:2;-sfsymbols-always-pulses:true;-sfsymbols-always-rotates:true;-sfsymbols-layer-tags:-6161b15220a6eb0a}
.multicolor-1:systemPurpleColor {-sfsymbols-variable-threshold:0.51;-sfsymbols-variable-draw:0.25 0.25;-sfsymbols-motion-group:2;-sfsymbols-always-pulses:true;-sfsymbols-always-rotates:true;-sfsymbols-layer-tags:-6161b15220a6eb0a}
.multicolor-2:tertiaryLabelColor {-sfsymbols-clear-behind:true;-sfsymbols-variable-threshold:0.26;-sfsymbols-variable-draw:0.5 0.25;-sfsymbols-motion-group:1;-sfsymbols-always-pulses:true;-sfsymbols-always-rotates:true;-sfsymbols-layer-tags:-6161b15220a6eb0a}
.multicolor-3:systemPinkColor {-sfsymbols-variable-threshold:0.0;-sfsymbols-variable-draw:0.75 0.25;-sfsymbols-motion-group:1;-sfsymbols-always-pulses:true;-sfsymbols-always-rotates:true;-sfsymbols-layer-tags:-6161b15220a6eb0a}
.multicolor-4:tintColor {opacity:0.0;-sfsymbols-clear-behind:true;-sfsymbols-motion-group:0;-sfsymbols-layer-tags:-6161b15220a6eb0a}

.hierarchical-0:tertiary {-sfsymbols-clear-behind:true;-sfsymbols-variable-threshold:0.76;-sfsymbols-variable-draw:0 0.25;-sfsymbols-motion-group:2;-sfsymbols-always-pulses:true;-sfsymbols-always-rotates:true;-sfsymbols-layer-tags:-6161b15220a6eb0a}
.hierarchical-1:primary {-sfsymbols-variable-threshold:0.51;-sfsymbols-variable-draw:0.25 0.25;-sfsymbols-motion-group:2;-sfsymbols-always-pulses:true;-sfsymbols-always-rotates:true;-sfsymbols-layer-tags:-6161b15220a6eb0a}
.hierarchical-2:secondary {-sfsymbols-clear-behind:true;-sfsymbols-variable-threshold:0.26;-sfsymbols-variable-draw:0.5 0.25;-sfsymbols-motion-group:1;-sfsymbols-always-pulses:true;-sfsymbols-always-rotates:true;-sfsymbols-layer-tags:-6161b15220a6eb0a}
.hierarchical-3:primary {-sfsymbols-variable-threshold:0.0;-sfsymbols-variable-draw:0.75 0.25;-sfsymbols-motion-group:1;-sfsymbols-always-pulses:true;-sfsymbols-always-rotates:true;-sfsymbols-layer-tags:-6161b15220a6eb0a}
.hierarchical-4:primary {opacity:0.0;-sfsymbols-clear-behind:true;-sfsymbols-motion-group:0;-sfsymbols-layer-tags:-6161b15220a6eb0a}

.SFSymbolsPreviewWireframe {fill:none;opacity:1.0;stroke:black;stroke-width:0.5}
</style>
 <g id="Notes">
  <rect height="2200" id="artboard" style="fill:white;opacity:1" width="3300" x="0" y="0"/>
  <line style="fill:none;stroke:black;opacity:1;stroke-width:0.5;" x1="263" x2="3036" y1="292" y2="292"/>
  <text style="stroke:none;fill:black;font-family:sans-serif;font-size:13;font-weight:bold;" transform="matrix(1 0 0 1 263 322)">Weight/Scale Variations</text>
  <text style="stroke:none;fill:black;font-family:sans-serif;font-size:13;text-anchor:middle;" transform="matrix(1 0 0 1 559.711 322)">Ultralight</text>
  <text style="stroke:none;fill:black;font-family:sans-serif;font-size:13;text-anchor:middle;" transform="matrix(1 0 0 1 856.422 322)">Thin</text>
  <text style="stroke:none;fill:black;font-family:sans-serif;font-size:13;text-anchor:middle;" transform="matrix(1 0 0 1 1153.13 322)">Light</text>
  <text style="stroke:none;fill:black;font-family:sans-serif;font-size:13;text-anchor:middle;" transform="matrix(1 0 0 1 1449.84 322)">Regular</text>
  <text style="stroke:none;fill:black;font-family:sans-serif;font-size:13;text-anchor:middle;" transform="matrix(1 0 0 1 1746.56 322)">Medium</text>
  <text style="stroke:none;fill:black;font-family:sans-serif;font-size:13;text-anchor:middle;" transform="matrix(1 0 0 1 2043.27 322)">Semibold</text>
  <text style="stroke:none;fill:black;font-family:sans-serif;font-size:13;text-anchor:middle;" transform="matrix(1 0 0 1 2339.98 322)">Bold</text>
  <text style="stroke:none;fill:black;font-family:sans-serif;font-size:13;text-anchor:middle;" transform="matrix(1 0 0 1 2636.69 322)">Heavy</text>
  <text style="stroke:none;fill:black;font-family:sans-serif;font-size:13;text-anchor:middle;" transform="matrix(1 0 0 1 2933.4 322)">Black</text>
  <line style="fill:none;stroke:black;opacity:1;stroke-width:0.5;" x1="263" x2="3036" y1="1903" y2="1903"/>
  <g transform="matrix(0.2 0 0 0.2 263 1933)">
   <path d="m46.2402 4.15039c21.7773 0 39.4531-17.627 39.4531-39.4043s-17.6758-39.4043-39.4531-39.4043c-21.7285 0-39.4043 17.627-39.4043 39.4043s17.6758 39.4043 39.4043 39.4043Zm0-7.42188c-17.6758 0-31.9336-14.3066-31.9336-31.9824s14.2578-31.9824 31.9336-31.9824 31.9824 14.3066 31.9824 31.9824-14.3066 31.9824-31.9824 31.9824Zm3.61328-17.7734v-28.4668c0-2.24609-1.46484-3.75977-3.71094-3.75977-2.14844 0-3.61328 1.51367-3.61328 3.75977v28.4668c0 2.19727 1.46484 3.71094 3.61328 3.71094 2.24609 0 3.71094-1.51367 3.71094-3.71094Zm-17.8223-10.5957h28.418c2.19727 0 3.71094-1.46484 3.71094-3.61328 0-2.19727-1.51367-3.71094-3.71094-3.71094h-28.418c-2.24609 0-3.75977 1.51367-3.75977 3.71094 0 2.14844 1.51367 3.61328 3.75977 3.61328Z"/>
  </g>
  <g transform="matrix(0.2 0 0 0.2 281.506 1933)">
   <path d="m58.5449 14.5508c27.4902 0 49.8047-22.3145 49.8047-49.8047s-22.3145-49.8047-49.8047-49.8047-49.8047 22.3145-49.8047 49.8047 22.3145 49.8047 49.8047 49.8047Zm0-8.30078c-22.9492 0-41.5039-18.5547-41.5039-41.5039s18.5547-41.5039 41.5039-41.5039 41.5039 18.5547 41.5039 41.5039-18.5547 41.5039-41.5039 41.5039Zm4.05273-23.0957v-36.9141c0-2.49023-1.70898-4.19922-4.15039-4.19922-2.39258 0-4.05273 1.70898-4.05273 4.19922v36.9141c0 2.44141 1.66016 4.15039 4.05273 4.15039 2.44141 0 4.15039-1.66016 4.15039-4.15039Zm-22.5586-14.4043h36.9629c2.44141 0 4.15039-1.61133 4.15039-4.00391 0-2.44141-1.70898-4.15039-4.15039-4.15039h-36.9629c-2.49023 0-4.15039 1.70898-4.15039 4.15039 0 2.39258 1.66016 4.00391 4.15039 4.00391Z"/>
  </g>
  <g transform="matrix(0.2 0 0 0.2 304.924 1933)">
   <path d="m74.8535 28.3203c35.1074 0 63.623-28.4668 63.623-63.5742s-28.5156-63.623-63.623-63.623-63.5742 28.5156-63.5742 63.623 28.4668 63.5742 63.5742 63.5742Zm0-9.08203c-30.127 0-54.4922-24.3652-54.4922-54.4922s24.3652-54.4922 54.4922-54.4922 54.4922 24.3652 54.4922 54.4922-24.3652 54.4922-54.4922 54.4922Zm4.44336-30.3223v-48.4863c0-2.73438-1.85547-4.63867-4.54102-4.63867-2.58789 0-4.44336 1.9043-4.44336 4.63867v48.4863c0 2.68555 1.85547 4.58984 4.44336 4.58984 2.68555 0 4.54102-1.85547 4.54102-4.58984Zm-28.7109-19.7754h48.4863c2.68555 0 4.58984-1.80664 4.58984-4.39453 0-2.73438-1.85547-4.58984-4.58984-4.58984h-48.4863c-2.73438 0-4.58984 1.85547-4.58984 4.58984 0 2.58789 1.85547 4.39453 4.58984 4.39453Z"/>
  </g>
  <text style="stroke:none;fill:black;font-family:sans-serif;font-size:13;font-weight:bold;" transform="matrix(1 0 0 1 263 1953)">Design Variations</text>
  <text style="stroke:none;fill:black;font-family:sans-serif;font-size:13;" transform="matrix(1 0 0 1 263 1971)">Symbols are supported in up to nine weights and three scales.</text>
  <text style="stroke:none;fill:black;font-family:sans-serif;font-size:13;" transform="matrix(1 0 0 1 263 1989)">For optimal layout with text and other symbols, vertically align</text>
  <text style="stroke:none;fill:black;font-family:sans-serif;font-size:13;" transform="matrix(1 0 0 1 263 2007)">symbols with the adjacent text.</text>
  <line style="fill:none;stroke:#00AEEF;stroke-width:0.5;opacity:1.0;" x1="776" x2="776" y1="1919" y2="1933"/>
  <g transform="matrix(0.2 0 0 0.2 776 1933)">
   <path d="m16.5527 0.78125c2.58789 0 3.85742-0.976562 4.78516-3.71094l20.5566-57.5195h0.244141l20.6055 57.5195c0.927734 2.73438 2.19727 3.71094 4.73633 3.71094 2.58789 0 4.24805-1.5625 4.24805-4.00391 0-0.830078-0.146484-1.61133-0.537109-2.63672l-22.9004-60.9863c-1.12305-2.97852-3.125-4.49219-6.25-4.49219-3.02734 0-5.07812 1.46484-6.15234 4.44336l-22.9004 61.084c-0.390625 1.02539-0.537109 1.80664-0.537109 2.63672 0 2.44141 1.5625 3.95508 4.10156 3.95508Zm10.2051-20.9473h30.6641c2.00195 0 3.66211-1.66016 3.66211-3.66211 0-2.05078-1.66016-3.66211-3.66211-3.66211h-30.6641c-2.00195 0-3.66211 1.61133-3.66211 3.66211 0 2.00195 1.66016 3.66211 3.66211 3.66211Z"/>
  </g>
  <line style="fill:none;stroke:#00AEEF;stroke-width:0.5;opacity:1.0;" x1="792.836" x2="792.836" y1="1919" y2="1933"/>
  <text style="stroke:none;fill:black;font-family:sans-serif;font-size:13;font-weight:bold;" transform="matrix(1 0 0 1 776 1953)">Margins</text>
  <text style="stroke:none;fill:black;font-family:sans-serif;font-size:13;" transform="matrix(1 0 0 1 776 1971)">Leading and trailing margins on the left and right side of each symbol</text>
  <text style="stroke:none;fill:black;font-family:sans-serif;font-size:13;" transform="matrix(1 0 0 1 776 1989)">can be adjusted by modifying the x-location of the margin guidelines.</text>
  <text style="stroke:none;fill:black;font-family:sans-serif;font-size:13;" transform="matrix(1 0 0 1 776 2007)">Modifications are automatically applied proportionally to all</text>
  <text style="stroke:none;fill:black;font-family:sans-serif;font-size:13;" transform="matrix(1 0 0 1 776 2025)">scales and weights.</text>
  <g transform="matrix(0.2 0 0 0.2 1289 1933)">
   <path d="m14.209 13.1348 7.86133 7.86133c4.29688 4.39453 9.32617 4.10156 13.8672-1.02539l60.6934-68.2129-4.88281-4.88281-60.2539 67.6758c-1.80664 1.95312-3.4668 2.44141-5.81055 0.0976562l-5.17578-5.12695c-2.29492-2.29492-1.80664-3.95508 0.195312-5.81055l67.4805-62.1582-4.88281-4.83398-68.0664 62.5977c-4.98047 4.58984-5.32227 9.47266-1.02539 13.8184Zm44.873-97.4609c-2.05078 2.00195-2.24609 4.88281-1.07422 6.78711 1.12305 1.80664 3.4668 3.02734 6.5918 2.24609 5.85938-1.66016 12.5977-2.39258 18.8965 0.927734l-2.68555 7.12891c-1.61133 4.00391-0.732422 6.88477 1.70898 9.42383l10.2539 10.3027c2.34375 2.39258 4.54102 2.44141 7.08008 1.95312l4.44336-0.732422 2.58789 2.53906-0.195312 2.24609c-0.0976562 2.29492 0.537109 4.29688 2.7832 6.49414l3.36914 3.32031c2.29492 2.29492 5.51758 2.49023 7.8125 0.195312l12.9883-13.0371c2.29492-2.34375 2.14844-5.37109-0.195312-7.66602l-3.41797-3.41797c-2.19727-2.19727-4.05273-3.02734-6.34766-2.88086l-2.34375 0.244141-2.44141-2.44141 1.02539-4.6875c0.634766-2.73438-0.244141-4.98047-2.88086-7.61719l-11.2793-11.1816c-12.9395-12.8418-35.5957-11.0352-46.6797-0.146484Zm7.08008 2.05078c8.78906-6.39648 25.9766-5.66406 33.6914 1.95312l12.3047 12.207c1.02539 1.02539 1.2207 1.80664 0.927734 3.32031l-1.46484 6.64062 6.73828 6.68945 4.39453-0.244141c1.12305-0.0488281 1.51367 0.0488281 2.34375 0.878906l2.53906 2.49023-10.8398 10.8398-2.49023-2.49023c-0.830078-0.878906-0.976562-1.2207-0.927734-2.39258l0.292969-4.3457-6.68945-6.73828-6.83594 1.17188c-1.41602 0.292969-2.05078 0.195312-3.17383-0.878906l-8.93555-8.88672c-1.07422-1.02539-1.17188-1.70898-0.488281-3.36914l4.58984-11.4746c-6.10352-6.34766-17.041-7.51953-25.5859-4.58984-0.683594 0.244141-0.927734-0.390625-0.390625-0.78125Z"/>
  </g>
  <text style="stroke:none;fill:black;font-family:sans-serif;font-size:13;font-weight:bold;" transform="matrix(1 0 0 1 1289 1953)">Exporting</text>
  <text style="stroke:none;fill:black;font-family:sans-serif;font-size:13;" transform="matrix(1 0 0 1 1289 1971)">Symbols should be outlined when exporting to ensure the</text>
  <text style="stroke:none;fill:black;font-family:sans-serif;font-size:13;" transform="matrix(1 0 0 1 1289 1989)">design is preserved when submitting to Xcode.</text>
  <text id="template-version" style="stroke:none;fill:black;font-family:sans-serif;font-size:13;text-anchor:end;" transform="matrix(1 0 0 1 3036 1933)">Template v.7.0</text>
  <text style="stroke:none;fill:black;font-family:sans-serif;font-size:13;text-anchor:end;" transform="matrix(1 0 0 1 3036 1951)">Requires Xcode 17 or greater</text>
  <text id="descriptive-name" style="stroke:none;fill:black;font-family:sans-serif;font-size:13;text-anchor:end;" transform="matrix(1 0 0 1 3036 1969)">Generated from app.chinendar</text>
  <text style="stroke:none;fill:black;font-family:sans-serif;font-size:13;text-anchor:end;" transform="matrix(1 0 0 1 3036 1987)">Typeset at 100.0 points</text>
  <text style="stroke:none;fill:black;font-family:sans-serif;font-size:13;" transform="matrix(1 0 0 1 263 726)">Small</text>
  <text style="stroke:none;fill:black;font-family:sans-serif;font-size:13;" transform="matrix(1 0 0 1 263 1156)">Medium</text>
  <text style="stroke:none;fill:black;font-family:sans-serif;font-size:13;" transform="matrix(1 0 0 1 263 1586)">Large</text>
 </g>
 <g id="Guides">
  <g id="H-reference" style="fill:#27AAE1;stroke:none;" transform="matrix(1 0 0 1 339 696)">
   <path d="M0.993654 0L3.63775 0L29.3281-67.1323L30.0303-67.1323L30.0303-70.459L28.1226-70.459ZM11.6885-24.4799L46.9815-24.4799L46.2315-26.7285L12.4385-26.7285ZM55.1196 0L57.7637 0L30.6382-70.459L29.4326-70.459L29.4326-67.1323Z"/>
  </g>
  <line id="Baseline-S" style="fill:none;stroke:#27AAE1;opacity:1;stroke-width:0.5;" x1="263" x2="3036" y1="696" y2="696"/>
  <line id="Capline-S" style="fill:none;stroke:#27AAE1;opacity:1;stroke-width:0.5;" x1="263" x2="3036" y1="625.541" y2="625.541"/>
  <g id="H-reference" style="fill:#27AAE1;stroke:none;" transform="matrix(1 0 0 1 339 1126)">
   <path d="M0.993654 0L3.63775 0L29.3281-67.1323L30.0303-67.1323L30.0303-70.459L28.1226-70.459ZM11.6885-24.4799L46.9815-24.4799L46.2315-26.7285L12.4385-26.7285ZM55.1196 0L57.7637 0L30.6382-70.459L29.4326-70.459L29.4326-67.1323Z"/>
  </g>
  <line id="Baseline-M" style="fill:none;stroke:#27AAE1;opacity:1;stroke-width:0.5;" x1="263" x2="3036" y1="1126" y2="1126"/>
  <line id="Capline-M" style="fill:none;stroke:#27AAE1;opacity:1;stroke-width:0.5;" x1="263" x2="3036" y1="1055.54" y2="1055.54"/>
  <g id="H-reference" style="fill:#27AAE1;stroke:none;" transform="matrix(1 0 0 1 339 1556)">
   <path d="M0.993654 0L3.63775 0L29.3281-67.1323L30.0303-67.1323L30.0303-70.459L28.1226-70.459ZM11.6885-24.4799L46.9815-24.4799L46.2315-26.7285L12.4385-26.7285ZM55.1196 0L57.7637 0L30.6382-70.459L29.4326-70.459L29.4326-67.1323Z"/>
  </g>
  <line id="Baseline-L" style="fill:none;stroke:#27AAE1;opacity:1;stroke-width:0.5;" x1="263" x2="3036" y1="1556" y2="1556"/>
  <line id="Capline-L" style="fill:none;stroke:#27AAE1;opacity:1;stroke-width:0.5;" x1="263" x2="3036" y1="1485.54" y2="1485.54"/>
  <line id="right-margin-Black-S" style="fill:none;stroke:#00AEEF;stroke-width:0.5;opacity:1.0;" x1="2980.8" x2="2980.8" y1="600.785" y2="720.121"/>
  <line id="left-margin-Black-S" style="fill:none;stroke:#00AEEF;stroke-width:0.5;opacity:1.0;" x1="2886" x2="2886" y1="600.785" y2="720.121"/>
  <line id="right-margin-Regular-S" style="fill:none;stroke:#00AEEF;stroke-width:0.5;opacity:1.0;" x1="1495.34" x2="1495.34" y1="600.785" y2="720.121"/>
  <line id="left-margin-Regular-S" style="fill:none;stroke:#00AEEF;stroke-width:0.5;opacity:1.0;" x1="1404.34" x2="1404.34" y1="600.785" y2="720.121"/>
  <line id="right-margin-Ultralight-S" style="fill:none;stroke:#00AEEF;stroke-width:0.5;opacity:1.0;" x1="602.611" x2="602.611" y1="600.785" y2="720.121"/>
  <line id="left-margin-Ultralight-S" style="fill:none;stroke:#00AEEF;stroke-width:0.5;opacity:1.0;" x1="516.811" x2="516.811" y1="600.785" y2="720.121"/>
 </g>
 <g id="Symbols">
  <g id="Black-S" transform="matrix(1 0 0 1 2886 696)">
   <path class="multicolor-0:quaternaryLabelColor hierarchical-0:tertiary SFSymbolsPreviewWireframe" d="M85.1-49.4C85.1-50.3 85.1-51.2 85.1-52.1C85.1-52.9 85.1-53.6 85.1-54.4C85.1-56 85-57.7 84.7-59.3C84.4-60.9 83.9-62.5 83.2-64C82.5-65.5 81.5-66.8 80.3-68C79.1-69.2 77.8-70.1 76.3-70.9C74.8-71.7 73.3-72.1 71.6-72.4C70-72.7 68.3-72.8 66.7-72.8C65.9-72.8 65.2-72.8 64.4-72.8C63.5-72.8 62.6-72.8 61.7-72.8L51.3-72.8L43.5-72.8L33.3-72.8C32.4-72.8 31.5-72.8 30.6-72.8C29.8-72.8 29.1-72.8 28.3-72.8C26.7-72.8 25-72.7 23.4-72.4C21.7-72.1 20.2-71.6 18.7-70.9C17.2-70.2 15.9-69.2 14.7-68C13.5-66.8 12.5-65.5 11.8-64C11-62.5 10.6-61 10.3-59.3C10-57.7 9.9-56 9.9-54.4C9.9-53.6 9.9-52.9 9.9-52.1C9.9-51.2 9.8-50.1 9.8-49.2L9.8-39.1L9.8-31.2L9.8-20.9C9.8-20 9.8-19.1 9.8-18.2C9.8-17.4 9.8-16.7 9.8-15.9C9.8-14.3 9.9-12.6 10.2-11C10.5-9.3 11-7.8 11.7-6.3C12.5-4.8 13.4-3.5 14.6-2.3C15.8-1.1 17.1-0.2 18.6 0.6C20.1 1.4 21.6 1.8 23.3 2.1C24.9 2.4 26.6 2.5 28.2 2.5C29 2.5 29.7 2.5 30.5 2.5C31.4 2.5 32.3 2.5 33.2 2.5L43.5 2.5L51.3 2.5L61.6 2.5C62.5 2.5 63.4 2.5 64.3 2.5C65.1 2.5 65.8 2.5 66.6 2.5C68.2 2.5 69.9 2.4 71.5 2.1C73.1 1.8 74.7 1.3 76.2 0.6C77.7-0.2 79-1.1 80.2-2.3C81.4-3.5 82.3-4.8 83.1-6.3C83.9-7.8 84.3-9.3 84.6-11C84.9-12.6 85-14.3 85-15.9C85-16.7 85-17.4 85-18.2C85-19.1 85-20 85-20.9C85-20.9 85-31 85-31.2L85-39.1C85.1-39.3 85.1-49.4 85.1-49.4Z"/>
   <path class="monochrome-0 multicolor-1:systemPurpleColor hierarchical-1:primary SFSymbolsPreviewWireframe" d="M85.1-47.1L47.3-35.2L47.3 2.5L51.3 2.5L61.6 2.5C62.5 2.5 63.4 2.5 64.3 2.5C65.1 2.5 65.8 2.5 66.6 2.5C68.2 2.5 69.9 2.4 71.5 2.1C73.2 1.8 74.7 1.3 76.2 0.6C77.7-0.2 79-1.1 80.2-2.3C81.4-3.5 82.4-4.8 83.1-6.3C83.9-7.8 84.3-9.3 84.6-11C84.9-12.6 85-14.3 85-15.9C85-16.7 85-17.4 85-18.2C85-19.1 85-20 85-20.9C85-20.9 85-31 85-31.2L85-39.1C85.1-39.3 85.1-44.1 85.1-47.1Z"/>
   <path class="multicolor-2:tertiaryLabelColor hierarchical-2:secondary SFSymbolsPreviewWireframe" d="M74.9-45.6C74.9-46.3 74.9-46.9 74.9-47.6C74.9-48.2 74.9-48.7 74.9-49.3C74.9-50.5 74.8-51.7 74.6-52.9C74.4-54.1 74-55.2 73.5-56.3C73-57.4 72.2-58.4 71.4-59.2C70.6-60 69.6-60.8 68.5-61.3C67.4-61.9 66.3-62.2 65.1-62.4C63.9-62.6 62.7-62.7 61.5-62.7C60.9-62.7 60.4-62.7 59.8-62.7C59.1-62.7 58.5-62.7 57.8-62.7L50.2-62.7L44.5-62.7L37-62.7C36.3-62.7 35.7-62.7 35-62.7C34.4-62.7 33.9-62.7 33.3-62.7C32.1-62.7 30.9-62.6 29.7-62.4C28.5-62.2 27.4-61.8 26.3-61.3C25.2-60.8 24.2-60 23.4-59.2C22.5-58.3 21.8-57.4 21.3-56.3C20.7-55.2 20.4-54.1 20.2-52.9C20-51.7 19.9-50.5 19.9-49.3C19.9-48.7 19.9-48.2 19.9-47.6C19.9-46.9 19.9-46.1 19.9-45.5L19.9-38.1L19.9-32.4L19.9-24.9C19.9-24.2 19.9-23.6 19.9-22.9C19.9-22.3 19.9-21.8 19.9-21.2C19.9-20 20-18.8 20.2-17.6C20.4-16.4 20.8-15.3 21.3-14.2C21.8-13.1 22.6-12.1 23.4-11.3C24.3-10.4 25.2-9.7 26.3-9.2C27.4-8.6 28.5-8.3 29.7-8.1C30.9-7.9 32.1-7.8 33.3-7.8C33.9-7.8 34.4-7.8 35-7.8C35.7-7.8 36.3-7.8 37-7.8L44.5-7.8L50.2-7.8L57.7-7.8C58.4-7.8 59-7.8 59.7-7.8C60.3-7.8 60.8-7.8 61.4-7.8C62.6-7.8 63.8-7.9 65-8.1C66.2-8.3 67.3-8.7 68.4-9.2C69.5-9.7 70.5-10.5 71.3-11.3C72.2-12.2 72.9-13.1 73.4-14.2C74-15.3 74.3-16.4 74.5-17.6C74.7-18.8 74.8-20 74.8-21.2C74.8-21.8 74.8-22.3 74.8-22.9C74.8-23.6 74.8-24.2 74.8-24.9C74.8-24.9 74.8-32.3 74.8-32.4L74.8-38.2C74.9-38.2 74.9-45.6 74.9-45.6Z"/>
   <path class="monochrome-1 multicolor-3:systemPinkColor hierarchical-3:primary SFSymbolsPreviewWireframe" d="M68.4-9.1C67.3-8.5 66.2-8.2 65-8C64.7-7.9 64.4-7.9 64.1-7.9C63.2-7.8 62.3-7.7 61.4-7.7C60.8-7.7 60.3-7.7 59.7-7.7C59-7.7 58.4-7.7 57.7-7.7L50.2-7.7L47.2-7.7L47.2-35.3L60.1-62.8C60.5-62.8 60.9-62.8 61.3-62.8C62.5-62.8 63.7-62.7 64.9-62.5C66.1-62.3 67.2-61.9 68.3-61.4C69.4-60.9 70.4-60.1 71.2-59.3C72.1-58.4 72.8-57.5 73.3-56.4C73.9-55.3 74.2-54.2 74.4-53C74.5-52.7 74.5-52.4 74.5-52.1C74.6-51.2 74.7-50.3 74.7-49.4C74.7-48.8 74.7-48.3 74.7-47.7C74.7-47 74.7-46.4 74.7-45.7C74.7-45.7 74.7-38.3 74.7-38.2L74.7-32.4C74.7-32.3 74.7-24.9 74.7-24.9C74.7-24.2 74.7-23.6 74.7-22.9C74.7-22.3 74.7-21.8 74.7-21.2C74.7-20 74.6-18.8 74.4-17.6C74.2-16.4 73.8-15.3 73.3-14.2C72.8-13.1 72-12.1 71.2-11.3C70.5-10.4 69.5-9.7 68.4-9.1Z"/>
   <path class="monochrome-2 multicolor-4:tintColor hierarchical-4:primary SFSymbolsPreviewWireframe" d="M64.9-41.8C64.9-42.2 64.9-42.6 64.9-43C64.9-43.4 64.9-43.7 64.9-44C64.9-44.8 64.8-45.5 64.7-46.3C64.6-47.1 64.3-47.8 64-48.5C63.7-49.2 63.2-49.8 62.7-50.4C62.2-50.9 61.5-51.4 60.8-51.7C60.1-52.1 59.4-52.3 58.6-52.4C57.8-52.5 57.1-52.6 56.3-52.6C55.9-52.6 55.6-52.6 55.2-52.6C54.8-52.6 54.4-52.6 54-52.6L49.2-52.6L45.6-52.6L40.9-52.6C40.5-52.6 40.1-52.6 39.7-52.6C39.3-52.6 39-52.6 38.6-52.6C37.8-52.6 37.1-52.5 36.3-52.4C35.5-52.3 34.8-52 34.1-51.7C33.4-51.4 32.8-50.9 32.2-50.4C31.7-49.9 31.2-49.2 30.9-48.5C30.5-47.8 30.3-47.1 30.2-46.3C30.1-45.5 30-44.8 30-44C30-43.7 30-43.3 30-43C30-42.6 30-42.1 30-41.7L30-37L30-33.4L30-28.6C30-28.2 30-27.8 30-27.4C30-27 30-26.7 30-26.3C30-25.5 30.1-24.8 30.2-24C30.3-23.2 30.6-22.5 30.9-21.8C31.2-21.1 31.7-20.5 32.2-19.9C32.7-19.4 33.4-18.9 34.1-18.6C34.8-18.2 35.5-18 36.3-17.9C37.1-17.8 37.8-17.7 38.6-17.7C39-17.7 39.3-17.7 39.7-17.7C40.1-17.7 40.5-17.7 40.9-17.7L45.7-17.7L49.3-17.7L54.1-17.7C54.5-17.7 54.9-17.7 55.3-17.7C55.7-17.7 56-17.7 56.4-17.7C57.2-17.7 57.9-17.8 58.7-17.9C59.5-18 60.2-18.3 60.9-18.6C61.6-18.9 62.2-19.4 62.8-19.9C63.3-20.4 63.8-21.1 64.1-21.8C64.5-22.5 64.7-23.2 64.8-24C64.9-24.8 65-25.5 65-26.3C65-26.7 65-27 65-27.4C65-27.8 65-28.2 65-28.6C65-28.6 65-33.3 65-33.4L65-37C64.9-37.1 64.9-41.8 64.9-41.8Z"/>
  </g>
  <g id="Regular-S" transform="matrix(1 0 0 1 1404.34 696)">
   <path class="multicolor-0:quaternaryLabelColor hierarchical-0:tertiary SFSymbolsPreviewWireframe" d="M81.4-48.7C81.4-49.6 81.4-50.4 81.4-51.3C81.4-52 81.4-52.7 81.4-53.4C81.4-55 81.3-56.5 81-58.1C80.7-59.7 80.3-61.1 79.5-62.5C78.8-63.9 77.9-65.2 76.7-66.3C75.6-67.4 74.3-68.3 72.9-69C71.5-69.7 70-70.2 68.5-70.5C67-70.8 65.4-70.9 63.8-70.9C63.1-70.9 62.4-70.9 61.7-70.9C60.8-70.9 60-70.9 59.1-70.9L49.2-70.9L41.8-70.9L32.1-70.9C31.2-70.9 30.4-70.9 29.5-70.9C28.8-70.9 28.1-70.9 27.3-70.9C25.7-70.9 24.2-70.8 22.6-70.5C21-70.2 19.6-69.8 18.1-69C16.7-68.3 15.4-67.4 14.3-66.3C13.2-65.2 12.3-63.9 11.5-62.5C10.8-61.1 10.3-59.6 10-58.1C9.7-56.6 9.6-55 9.6-53.4C9.6-52.7 9.6-52 9.6-51.3C9.6-50.4 9.6-49.4 9.6-48.5L9.6-38.9L9.6-31.4L9.6-21.6C9.6-20.7 9.6-19.9 9.6-19C9.6-18.3 9.6-17.6 9.6-16.8C9.6-15.2 9.7-13.7 10-12.1C10.3-10.5 10.7-9.1 11.5-7.7C12.2-6.3 13.1-5 14.3-3.9C15.4-2.8 16.7-1.9 18.1-1.1C19.5-0.4 21 0.1 22.6 0.4C24.1 0.7 25.7 0.8 27.3 0.8C28 0.8 28.7 0.8 29.5 0.8C30.4 0.8 31.2 0.8 32.1 0.8L41.9 0.8L49.3 0.8L59.1 0.8C60 0.8 60.8 0.8 61.7 0.8C62.4 0.8 63.1 0.8 63.8 0.8C65.4 0.8 66.9 0.7 68.5 0.4C70.1 0.1 71.5-0.3 72.9-1.1C74.3-1.8 75.6-2.7 76.7-3.9C77.8-5 78.7-6.3 79.5-7.7C80.2-9.1 80.7-10.6 81-12.2C81.3-13.7 81.4-15.3 81.4-16.9C81.4-17.6 81.4-18.3 81.4-19.1C81.4-20 81.4-20.8 81.4-21.7C81.4-21.7 81.4-31.3 81.4-31.5L81.4-39C81.4-39 81.4-48.7 81.4-48.7Z"/>
   <path class="monochrome-0 multicolor-1:systemPurpleColor hierarchical-1:primary SFSymbolsPreviewWireframe" d="M81.4-46.5L45.5-35.2L45.5 0.6L49.3 0.6L59.1 0.6C60 0.6 60.8 0.6 61.7 0.6C62.4 0.6 63.1 0.6 63.9 0.6C65.5 0.6 67 0.5 68.6 0.2C70.2-0.1 71.6-0.5 73.1-1.3C74.5-2 75.8-2.9 76.9-4.1C78-5.2 78.9-6.5 79.7-7.9C80.4-9.3 80.9-10.8 81.2-12.4C81.5-13.9 81.6-15.5 81.6-17.1C81.6-17.8 81.6-18.5 81.6-19.3C81.6-20.2 81.6-21 81.6-21.9C81.6-21.9 81.6-31.5 81.6-31.7L81.6-39.2C81.4-39 81.4-43.6 81.4-46.5Z"/>
   <path class="multicolor-2:tertiaryLabelColor hierarchical-2:secondary SFSymbolsPreviewWireframe" d="M71.7-45C71.7-45.6 71.7-46.2 71.7-46.9C71.7-47.4 71.7-47.9 71.7-48.5C71.7-49.6 71.6-50.8 71.4-51.9C71.2-53 70.9-54.1 70.3-55.1C69.8-56.1 69.1-57.1 68.3-57.9C67.5-58.7 66.6-59.4 65.5-59.9C64.5-60.4 63.4-60.8 62.2-61C61.1-61.2 59.9-61.3 58.8-61.3C58.3-61.3 57.8-61.3 57.2-61.3C56.6-61.3 56-61.3 55.3-61.3L48.1-61.3L42.7-61.3L35.6-61.3C35-61.3 34.4-61.3 33.7-61.3C33.2-61.3 32.7-61.3 32.1-61.3C31-61.3 29.8-61.2 28.7-61C27.6-60.8 26.5-60.5 25.4-59.9C24.4-59.5 23.4-58.7 22.6-57.9C21.8-57.1 21.1-56.2 20.6-55.1C20.1-54.1 19.7-53 19.5-51.9C19.3-50.8 19.2-49.6 19.2-48.5C19.2-48 19.2-47.5 19.2-46.9C19.2-46.3 19.2-45.5 19.2-44.9L19.2-37.9L19.2-32.4L19.2-25.3C19.2-24.7 19.2-24.1 19.2-23.4C19.2-22.9 19.2-22.4 19.2-21.8C19.2-20.7 19.3-19.5 19.5-18.4C19.7-17.3 20-16.2 20.6-15.1C21.1-14.1 21.8-13.1 22.6-12.3C23.4-11.5 24.3-10.8 25.4-10.3C26.4-9.8 27.5-9.4 28.7-9.2C29.8-9 31-8.9 32.1-8.9C32.6-8.9 33.1-8.9 33.7-8.9C34.3-8.9 34.9-8.9 35.6-8.9L42.8-8.9L48.2-8.9L55.3-8.9C55.9-8.9 56.5-8.9 57.2-8.9C57.7-8.9 58.2-8.9 58.8-8.9C59.9-8.9 61.1-9 62.2-9.2C63.3-9.4 64.4-9.7 65.4-10.3C66.4-10.8 67.4-11.5 68.2-12.3C69-13.1 69.7-14 70.2-15.1C70.7-16.1 71.1-17.2 71.3-18.4C71.5-19.5 71.6-20.7 71.6-21.8C71.6-22.3 71.6-22.8 71.6-23.4C71.6-24 71.6-24.6 71.6-25.3C71.6-25.3 71.6-32.3 71.6-32.4L71.6-37.9C71.7-38 71.7-45 71.7-45Z"/>
   <path class="monochrome-1 multicolor-3:systemPinkColor hierarchical-3:primary SFSymbolsPreviewWireframe" d="M65.5-10.4C64.5-9.9 63.4-9.5 62.2-9.3C61.9-9.3 61.6-9.2 61.4-9.2C60.6-9.1 59.7-9.1 58.8-9C58.3-9 57.8-9 57.2-9C56.6-9 56-9 55.3-9L48.2-9L45.4-9L45.4-35.2L57.6-61.3C58-61.3 58.4-61.3 58.8-61.3C59.9-61.3 61.1-61.2 62.2-61C63.3-60.8 64.4-60.5 65.5-59.9C66.5-59.4 67.5-58.7 68.3-57.9C69.1-57.1 69.8-56.2 70.3-55.1C70.8-54.1 71.2-53 71.4-51.9C71.4-51.6 71.5-51.3 71.5-51.1C71.6-50.2 71.6-49.4 71.7-48.5C71.7-48 71.7-47.5 71.7-46.9C71.7-46.3 71.7-45.7 71.7-45C71.7-45 71.7-38 71.7-37.9L71.7-32.4C71.7-32.3 71.7-25.3 71.7-25.3C71.7-24.7 71.7-24.1 71.7-23.4C71.7-22.9 71.7-22.4 71.7-21.8C71.7-20.7 71.6-19.5 71.4-18.4C71.2-17.3 70.9-16.2 70.3-15.1C69.8-14.1 69.1-13.1 68.3-12.3C67.5-11.6 66.6-10.9 65.5-10.4Z"/>
   <path class="monochrome-2 multicolor-4:tintColor hierarchical-4:primary SFSymbolsPreviewWireframe" d="M62.2-41.4C62.2-41.8 62.2-42.2 62.2-42.6C62.2-42.9 62.2-43.3 62.2-43.6C62.2-44.3 62.1-45.1 62-45.8C61.9-46.5 61.7-47.2 61.3-47.9C61-48.5 60.5-49.1 60-49.7C59.5-50.3 58.9-50.6 58.2-51C57.5-51.3 56.9-51.5 56.1-51.7C55.4-51.8 54.7-51.9 53.9-51.9C53.6-51.9 53.2-51.9 52.9-51.9C52.5-51.9 52.1-51.9 51.7-51.9L47.1-51.9L43.7-51.9L39.2-51.9C38.8-51.9 38.4-51.9 38-51.9C37.7-51.9 37.3-51.9 37-51.9C36.3-51.9 35.5-51.8 34.8-51.7C34.1-51.6 33.4-51.4 32.7-51C32-50.7 31.5-50.2 30.9-49.7C30.4-49.2 30-48.6 29.6-47.9C29.3-47.2 29-46.6 28.9-45.8C28.8-45.1 28.7-44.4 28.7-43.6C28.7-43.3 28.7-42.9 28.7-42.6C28.7-42.2 28.7-41.7 28.7-41.3L28.7-36.9L28.7-33.4L28.7-28.9C28.7-28.5 28.7-28.1 28.7-27.7C28.7-27.4 28.7-27 28.7-26.7C28.7-26 28.8-25.2 28.9-24.5C29-23.8 29.2-23.1 29.6-22.4C29.9-21.8 30.4-21.2 30.9-20.6C31.4-20.1 32-19.7 32.7-19.3C33.4-19 34-18.7 34.8-18.6C35.5-18.5 36.2-18.4 37-18.4C37.3-18.4 37.7-18.4 38-18.4C38.4-18.4 38.8-18.4 39.2-18.4L43.7-18.4L47.1-18.4L51.6-18.4C52-18.4 52.4-18.4 52.8-18.4C53.1-18.4 53.5-18.4 53.8-18.4C54.5-18.4 55.3-18.5 56-18.6C56.7-18.7 57.4-18.9 58.1-19.3C58.7-19.6 59.3-20.1 59.9-20.6C60.4-21.1 60.8-21.7 61.2-22.4C61.5-23.1 61.7-23.7 61.9-24.5C62-25.2 62.1-25.9 62.1-26.7C62.1-27 62.1-27.4 62.1-27.7C62.1-28.1 62.1-28.5 62.1-28.9C62.1-28.9 62.1-33.4 62.1-33.4L62.1-36.9C62.2-36.9 62.2-41.4 62.2-41.4Z"/>
  </g>
  <g id="Ultralight-S" transform="matrix(1 0 0 1 516.811 696)">
   <path class="multicolor-0:quaternaryLabelColor hierarchical-0:tertiary SFSymbolsPreviewWireframe" d="M76.1-47.7C76.1-48.5 76.1-49.3 76.1-50.1C76.1-50.8 76.1-51.4 76.1-52.1C76.1-53.5 76-55 75.7-56.4C75.4-57.9 75-59.2 74.3-60.5C73.6-61.8 72.8-63 71.7-64C70.7-65 69.5-65.9 68.2-66.5C66.9-67.2 65.5-67.6 64.1-67.9C62.7-68.2 61.2-68.2 59.8-68.3C59.1-68.3 58.5-68.3 57.8-68.3C57-68.3 56.2-68.3 55.4-68.3L46.2-68.3L39.4-68.3L30.4-68.3C29.6-68.3 28.8-68.3 28-68.3C27.3-68.3 26.7-68.3 26-68.3C24.5-68.3 23.1-68.2 21.7-67.9C20.2-67.6 18.9-67.2 17.6-66.5C16.3-65.8 15.1-65 14.1-64C13.1-63 12.2-61.8 11.5-60.5C10.8-59.2 10.4-57.8 10.1-56.4C9.8-55 9.8-53.5 9.7-52.1C9.7-51.4 9.7-50.8 9.7-50.1C9.7-49.3 9.7-48.3 9.7-47.5L9.7-38.6L9.7-31.7L9.7-22.6C9.7-21.8 9.7-21 9.7-20.2C9.7-19.5 9.7-18.9 9.7-18.2C9.7-16.8 9.8-15.3 10.1-13.9C10.4-12.4 10.8-11.1 11.5-9.8C12.2-8.5 13-7.3 14.1-6.3C15.1-5.3 16.3-4.4 17.6-3.7C18.9-3 20.3-2.6 21.7-2.3C23.1-2 24.6-2 26-1.9C26.7-1.9 27.3-1.9 28-1.9C28.8-1.9 29.6-1.9 30.4-1.9L39.5-1.9L46.4-1.9L55.5-1.9C56.3-1.9 57.1-1.9 57.9-1.9C58.6-1.9 59.2-1.9 59.9-1.9C61.3-1.9 62.8-2 64.2-2.3C65.7-2.6 67-3 68.3-3.7C69.6-4.4 70.8-5.2 71.8-6.3C72.8-7.3 73.7-8.5 74.4-9.8C75.1-11.1 75.5-12.5 75.8-13.9C76.1-15.3 76.1-16.8 76.2-18.2C76.2-18.9 76.2-19.5 76.2-20.2C76.2-21 76.2-21.8 76.2-22.6C76.2-22.6 76.2-31.5 76.2-31.7L76.2-38.6C76.1-38.7 76.1-47.7 76.1-47.7Z"/>
   <path class="monochrome-0 multicolor-1:systemPurpleColor hierarchical-1:primary SFSymbolsPreviewWireframe" d="M76.1-45.6L42.8-35.1L42.8-2L46.3-2L55.4-2C56.2-2 57-2 57.8-2C58.5-2 59.1-2 59.8-2C61.3-2 62.7-2.1 64.1-2.4C65.6-2.7 66.9-3.1 68.2-3.8C69.5-4.5 70.7-5.3 71.7-6.4C72.7-7.4 73.6-8.6 74.3-9.9C75-11.2 75.4-12.6 75.7-14C76-15.4 76-16.9 76.1-18.3C76.1-19 76.1-19.6 76.1-20.3C76.1-21.1 76.1-21.9 76.1-22.7C76.1-22.7 76.1-31.6 76.1-31.8L76.1-38.7C76.1-38.7 76.1-43 76.1-45.6Z"/>
   <path class="multicolor-2:tertiaryLabelColor hierarchical-2:secondary SFSymbolsPreviewWireframe" d="M67.2-44.3C67.2-44.9 67.2-45.5 67.2-46C67.2-46.5 67.2-47 67.2-47.5C67.2-48.6 67.1-49.6 66.9-50.7C66.7-51.8 66.4-52.7 65.9-53.7C65.4-54.6 64.8-55.5 64-56.3C63.2-57.1 62.4-57.7 61.4-58.2C60.4-58.7 59.4-59 58.4-59.2C57.4-59.4 56.3-59.4 55.2-59.5C54.7-59.5 54.2-59.5 53.7-59.5C53.1-59.5 52.5-59.5 52-59.5L45.3-59.5L40.3-59.5L33.7-59.5C33.1-59.5 32.5-59.5 32-59.5C31.5-59.5 31-59.5 30.5-59.5C29.4-59.5 28.4-59.4 27.3-59.2C26.2-59 25.2-58.7 24.3-58.2C23.4-57.8 22.5-57.1 21.7-56.3C20.9-55.5 20.3-54.7 19.8-53.7C19.3-52.7 19-51.7 18.8-50.7C18.6-49.7 18.5-48.6 18.5-47.5C18.5-47 18.5-46.5 18.5-46C18.5-45.4 18.5-44.7 18.5-44.1L18.5-37.6L18.5-32.5L18.5-25.9C18.5-25.3 18.5-24.7 18.5-24.2C18.5-23.7 18.5-23.2 18.5-22.7C18.5-21.6 18.6-20.6 18.8-19.5C19-18.4 19.3-17.4 19.8-16.5C20.3-15.6 20.9-14.7 21.7-13.9C22.5-13.1 23.3-12.5 24.3-12C25.3-11.5 26.3-11.2 27.3-11C28.3-10.8 29.4-10.7 30.5-10.7C31-10.7 31.5-10.7 32-10.7C32.6-10.7 33.2-10.7 33.7-10.7L40.3-10.7L45.3-10.7L51.9-10.7C52.5-10.7 53.1-10.7 53.6-10.7C54.1-10.7 54.6-10.7 55.1-10.7C56.2-10.7 57.2-10.8 58.3-11C59.4-11.2 60.3-11.5 61.3-12C62.2-12.5 63.1-13.1 63.9-13.9C64.7-14.7 65.3-15.5 65.8-16.5C66.3-17.5 66.6-18.5 66.8-19.5C67-20.5 67.1-21.6 67.1-22.7C67.1-23.2 67.1-23.7 67.1-24.2C67.1-24.8 67.1-25.4 67.1-25.9C67.1-25.9 67.1-32.4 67.1-32.5L67.1-37.6C67.2-37.8 67.2-44.3 67.2-44.3Z"/>
   <path class="monochrome-1 multicolor-3:systemPinkColor hierarchical-3:primary SFSymbolsPreviewWireframe" d="M61.4-12.2C60.4-11.7 59.4-11.4 58.4-11.2C58.1-11.2 57.9-11.1 57.6-11.1C56.8-11 56-11 55.2-10.9C54.7-10.9 54.2-10.9 53.7-10.9C53.1-10.9 52.5-10.9 52-10.9L45.4-10.9L42.8-10.9L42.8-35.2L54.2-59.4C54.6-59.4 54.9-59.4 55.3-59.4C56.4-59.4 57.4-59.3 58.5-59.1C59.6-58.9 60.5-58.6 61.5-58.1C62.4-57.6 63.3-57 64.1-56.2C64.9-55.4 65.5-54.6 66-53.6C66.5-52.6 66.8-51.6 67-50.6C67-50.3 67.1-50.1 67.1-49.8C67.2-49 67.2-48.2 67.3-47.4C67.3-46.9 67.3-46.4 67.3-45.9C67.3-45.3 67.3-44.7 67.3-44.2C67.3-44.2 67.3-37.7 67.3-37.6L67.3-32.5C67.3-32.4 67.3-25.9 67.3-25.9C67.3-25.3 67.3-24.7 67.3-24.2C67.3-23.7 67.3-23.2 67.3-22.7C67.3-21.6 67.2-20.6 67-19.5C66.8-18.4 66.5-17.4 66-16.5C65.5-15.6 64.9-14.7 64.1-13.9C63.2-13.3 62.4-12.7 61.4-12.2Z"/>
   <path class="monochrome-2 multicolor-4:tintColor hierarchical-4:primary SFSymbolsPreviewWireframe" d="M58.3-41C58.3-41.4 58.3-41.7 58.3-42.1C58.3-42.4 58.3-42.7 58.3-43C58.3-43.7 58.2-44.3 58.1-45C58-45.7 57.8-46.3 57.5-46.9C57.2-47.5 56.8-48.1 56.3-48.5C55.8-48.9 55.3-49.4 54.7-49.7C54.1-50 53.5-50.2 52.8-50.3C52.1-50.4 51.5-50.5 50.8-50.5C50.5-50.5 50.2-50.5 49.9-50.5C49.5-50.5 49.2-50.5 48.8-50.5L44.5-50.5L41.3-50.5L37.1-50.5C36.7-50.5 36.4-50.5 36-50.5C35.7-50.5 35.4-50.5 35.1-50.5C34.4-50.5 33.7-50.4 33.1-50.3C32.4-50.2 31.8-50 31.2-49.7C30.6-49.4 30-49 29.6-48.5C29.1-48 28.7-47.5 28.4-46.9C28.1-46.3 27.9-45.7 27.8-45C27.7-44.3 27.6-43.7 27.6-43C27.6-42.7 27.6-42.4 27.6-42.1C27.6-41.7 27.6-41.3 27.6-40.9L27.6-36.8L27.6-33.6L27.6-29.4C27.6-29 27.6-28.7 27.6-28.3C27.6-28 27.6-27.7 27.6-27.4C27.6-26.7 27.7-26 27.8-25.4C27.9-24.7 28.1-24.1 28.4-23.5C28.7-22.9 29.1-22.3 29.6-21.9C30.1-21.4 30.6-21 31.2-20.7C31.8-20.4 32.4-20.2 33.1-20.1C33.8-20 34.4-19.9 35.1-19.9C35.4-19.9 35.7-19.9 36-19.9C36.4-19.9 36.7-19.9 37.1-19.9L41.3-19.9L44.5-19.9L48.7-19.9C49.1-19.9 49.4-19.9 49.8-19.9C50.1-19.9 50.4-19.9 50.7-19.9C51.4-19.9 52-20 52.7-20.1C53.4-20.2 54-20.4 54.6-20.7C55.2-21 55.8-21.4 56.2-21.9C56.7-22.4 57.1-22.9 57.4-23.5C57.7-24.1 57.9-24.7 58-25.4C58.1-26.1 58.2-26.7 58.2-27.4C58.2-27.7 58.2-28 58.2-28.3C58.2-28.7 58.2-29 58.2-29.4C58.2-29.4 58.2-33.5 58.2-33.6L58.2-36.8C58.3-36.8 58.3-41 58.3-41Z"/>
  </g>
 </g>
 <g id="Anchors">
  <circle cx="2933.4" cy="660.771" id="Black-S-rotate-anchor" r="1" style="fill:#FFCC00; opacity:1.0;"/>
  <circle cx="1449.84" cy="660.771" id="Regular-S-rotate-anchor" r="1" style="fill:#FFCC00; opacity:1.0;"/>
  <circle cx="559.711" cy="660.771" id="Ultralight-S-rotate-anchor" r="1" style="fill:#FFCC00; opacity:1.0;"/>
 </g>
</svg>
