<?xml version="1.0" encoding="UTF-8"?>
<!--Generator: Apple Native CoreSVG 341-->
<!DOCTYPE svg
PUBLIC "-//W3C//DTD SVG 1.1//EN"
       "http://www.w3.org/Graphics/SVG/1.1/DTD/svg11.dtd">
<svg version="1.1" xmlns="http://www.w3.org/2000/svg" xmlns:xlink="http://www.w3.org/1999/xlink" viewBox="0 0 3300 2200">
 <!--glyph: "", point size: 100.0, font version: "21.0d4e1", template writer version: "138.0.0"-->
 <style>.defaults {-sfsymbols-variable-value-mode:color;-sfsymbols-draw-reverses-motion-groups:true}

.monochrome-0 {-sfsymbols-variable-threshold:0.0;-sfsymbols-variable-draw:0 0.5;-sfsymbols-motion-group:0;-sfsymbols-always-pulses:true;-sfsymbols-always-rotates:true;-sfsymbols-layer-tags:-1e2824bb28eb3ff}
.monochrome-1 {-sfsymbols-variable-threshold:0.51;-sfsymbols-variable-draw:0.5 0.5;-sfsymbols-motion-group:0;-sfsymbols-always-pulses:true;-sfsymbols-always-rotates:true;-sfsymbols-layer-tags:-1e2824bb28eb3ff}
.monochrome-2 {opacity:0.0;-sfsymbols-clear-behind:true;-sfsymbols-motion-group:0;-sfsymbols-layer-tags:-1e2824bb28eb3ff}

.multicolor-0:quaternaryLabelColor {-sfsymbols-clear-behind:true;-sfsymbols-variable-threshold:0.0;-sfsymbols-variable-draw:0 0.25;-sfsymbols-motion-group:2;-sfsymbols-always-pulses:true;-sfsymbols-always-rotates:true;-sfsymbols-layer-tags:-1e2824bb28eb3ff}
.multicolor-1:systemPurpleColor {-sfsymbols-variable-threshold:0.26;-sfsymbols-variable-draw:0.25 0.25;-sfsymbols-motion-group:2;-sfsymbols-always-pulses:true;-sfsymbols-always-rotates:true;-sfsymbols-layer-tags:-1e2824bb28eb3ff}
.multicolor-2:tertiaryLabelColor {-sfsymbols-clear-behind:true;-sfsymbols-variable-threshold:0.51;-sfsymbols-variable-draw:0.5 0.25;-sfsymbols-motion-group:1;-sfsymbols-always-pulses:true;-sfsymbols-always-rotates:true;-sfsymbols-layer-tags:-1e2824bb28eb3ff}
.multicolor-3:systemPinkColor {-sfsymbols-variable-threshold:0.76;-sfsymbols-variable-draw:0.75 0.25;-sfsymbols-motion-group:1;-sfsymbols-always-pulses:true;-sfsymbols-always-rotates:true;-sfsymbols-layer-tags:-1e2824bb28eb3ff}
.multicolor-4:tintColor {opacity:0.0;-sfsymbols-clear-behind:true;-sfsymbols-motion-group:0;-sfsymbols-layer-tags:-1e2824bb28eb3ff}

.hierarchical-0:tertiary {-sfsymbols-clear-behind:true;-sfsymbols-variable-threshold:0.0;-sfsymbols-variable-draw:0 0.25;-sfsymbols-motion-group:2;-sfsymbols-always-pulses:true;-sfsymbols-always-rotates:true;-sfsymbols-layer-tags:-1e2824bb28eb3ff}
.hierarchical-1:primary {-sfsymbols-variable-threshold:0.26;-sfsymbols-variable-draw:0.25 0.25;-sfsymbols-motion-group:2;-sfsymbols-always-pulses:true;-sfsymbols-always-rotates:true;-sfsymbols-layer-tags:-1e2824bb28eb3ff}
.hierarchical-2:secondary {-sfsymbols-clear-behind:true;-sfsymbols-variable-threshold:0.51;-sfsymbols-variable-draw:0.5 0.25;-sfsymbols-motion-group:1;-sfsymbols-always-pulses:true;-sfsymbols-always-rotates:true;-sfsymbols-layer-tags:-1e2824bb28eb3ff}
.hierarchical-3:primary {-sfsymbols-variable-threshold:0.76;-sfsymbols-variable-draw:0.75 0.25;-sfsymbols-motion-group:1;-sfsymbols-always-pulses:true;-sfsymbols-always-rotates:true;-sfsymbols-layer-tags:-1e2824bb28eb3ff}
.hierarchical-4:primary {opacity:0.0;-sfsymbols-clear-behind:true;-sfsymbols-motion-group:0;-sfsymbols-layer-tags:-1e2824bb28eb3ff}

.SFSymbolsPreviewWireframe {fill:none;opacity:1.0;stroke:black;stroke-width:0.5}
</style>
 <g id="Notes">
  <rect height="2200" id="artboard" style="fill:white;opacity:1" width="3300" x="0" y="0"/>
  <line style="fill:none;stroke:black;opacity:1;stroke-width:0.5;" x1="263" x2="3036" y1="292" y2="292"/>
  <text style="stroke:none;fill:black;font-family:sans-serif;font-size:13;font-weight:bold;" transform="matrix(1 0 0 1 263 322)">Weight/Scale Variations</text>
  <text style="stroke:none;fill:black;font-family:sans-serif;font-size:13;text-anchor:middle;" transform="matrix(1 0 0 1 559.711 322)">Ultralight</text>
  <text style="stroke:none;fill:black;font-family:sans-serif;font-size:13;text-anchor:middle;" transform="matrix(1 0 0 1 856.422 322)">Thin</text>
  <text style="stroke:none;fill:black;font-family:sans-serif;font-size:13;text-anchor:middle;" transform="matrix(1 0 0 1 1153.13 322)">Light</text>
  <text style="stroke:none;fill:black;font-family:sans-serif;font-size:13;text-anchor:middle;" transform="matrix(1 0 0 1 1449.84 322)">Regular</text>
  <text style="stroke:none;fill:black;font-family:sans-serif;font-size:13;text-anchor:middle;" transform="matrix(1 0 0 1 1746.56 322)">Medium</text>
  <text style="stroke:none;fill:black;font-family:sans-serif;font-size:13;text-anchor:middle;" transform="matrix(1 0 0 1 2043.27 322)">Semibold</text>
  <text style="stroke:none;fill:black;font-family:sans-serif;font-size:13;text-anchor:middle;" transform="matrix(1 0 0 1 2339.98 322)">Bold</text>
  <text style="stroke:none;fill:black;font-family:sans-serif;font-size:13;text-anchor:middle;" transform="matrix(1 0 0 1 2636.69 322)">Heavy</text>
  <text style="stroke:none;fill:black;font-family:sans-serif;font-size:13;text-anchor:middle;" transform="matrix(1 0 0 1 2933.4 322)">Black</text>
  <line style="fill:none;stroke:black;opacity:1;stroke-width:0.5;" x1="263" x2="3036" y1="1903" y2="1903"/>
  <g transform="matrix(0.2 0 0 0.2 263 1933)">
   <path d="m46.2402 4.15039c21.7773 0 39.4531-17.627 39.4531-39.4043s-17.6758-39.4043-39.4531-39.4043c-21.7285 0-39.4043 17.627-39.4043 39.4043s17.6758 39.4043 39.4043 39.4043Zm0-7.42188c-17.6758 0-31.9336-14.3066-31.9336-31.9824s14.2578-31.9824 31.9336-31.9824 31.9824 14.3066 31.9824 31.9824-14.3066 31.9824-31.9824 31.9824Zm3.61328-17.7734v-28.4668c0-2.24609-1.46484-3.75977-3.71094-3.75977-2.14844 0-3.61328 1.51367-3.61328 3.75977v28.4668c0 2.19727 1.46484 3.71094 3.61328 3.71094 2.24609 0 3.71094-1.51367 3.71094-3.71094Zm-17.8223-10.5957h28.418c2.19727 0 3.71094-1.46484 3.71094-3.61328 0-2.19727-1.51367-3.71094-3.71094-3.71094h-28.418c-2.24609 0-3.75977 1.51367-3.75977 3.71094 0 2.14844 1.51367 3.61328 3.75977 3.61328Z"/>
  </g>
  <g transform="matrix(0.2 0 0 0.2 281.506 1933)">
   <path d="m58.5449 14.5508c27.4902 0 49.8047-22.3145 49.8047-49.8047s-22.3145-49.8047-49.8047-49.8047-49.8047 22.3145-49.8047 49.8047 22.3145 49.8047 49.8047 49.8047Zm0-8.30078c-22.9492 0-41.5039-18.5547-41.5039-41.5039s18.5547-41.5039 41.5039-41.5039 41.5039 18.5547 41.5039 41.5039-18.5547 41.5039-41.5039 41.5039Zm4.05273-23.0957v-36.9141c0-2.49023-1.70898-4.19922-4.15039-4.19922-2.39258 0-4.05273 1.70898-4.05273 4.19922v36.9141c0 2.44141 1.66016 4.15039 4.05273 4.15039 2.44141 0 4.15039-1.66016 4.15039-4.15039Zm-22.5586-14.4043h36.9629c2.44141 0 4.15039-1.61133 4.15039-4.00391 0-2.44141-1.70898-4.15039-4.15039-4.15039h-36.9629c-2.49023 0-4.15039 1.70898-4.15039 4.15039 0 2.39258 1.66016 4.00391 4.15039 4.00391Z"/>
  </g>
  <g transform="matrix(0.2 0 0 0.2 304.924 1933)">
   <path d="m74.8535 28.3203c35.1074 0 63.623-28.4668 63.623-63.5742s-28.5156-63.623-63.623-63.623-63.5742 28.5156-63.5742 63.623 28.4668 63.5742 63.5742 63.5742Zm0-9.08203c-30.127 0-54.4922-24.3652-54.4922-54.4922s24.3652-54.4922 54.4922-54.4922 54.4922 24.3652 54.4922 54.4922-24.3652 54.4922-54.4922 54.4922Zm4.44336-30.3223v-48.4863c0-2.73438-1.85547-4.63867-4.54102-4.63867-2.58789 0-4.44336 1.9043-4.44336 4.63867v48.4863c0 2.68555 1.85547 4.58984 4.44336 4.58984 2.68555 0 4.54102-1.85547 4.54102-4.58984Zm-28.7109-19.7754h48.4863c2.68555 0 4.58984-1.80664 4.58984-4.39453 0-2.73438-1.85547-4.58984-4.58984-4.58984h-48.4863c-2.73438 0-4.58984 1.85547-4.58984 4.58984 0 2.58789 1.85547 4.39453 4.58984 4.39453Z"/>
  </g>
  <text style="stroke:none;fill:black;font-family:sans-serif;font-size:13;font-weight:bold;" transform="matrix(1 0 0 1 263 1953)">Design Variations</text>
  <text style="stroke:none;fill:black;font-family:sans-serif;font-size:13;" transform="matrix(1 0 0 1 263 1971)">Symbols are supported in up to nine weights and three scales.</text>
  <text style="stroke:none;fill:black;font-family:sans-serif;font-size:13;" transform="matrix(1 0 0 1 263 1989)">For optimal layout with text and other symbols, vertically align</text>
  <text style="stroke:none;fill:black;font-family:sans-serif;font-size:13;" transform="matrix(1 0 0 1 263 2007)">symbols with the adjacent text.</text>
  <line style="fill:none;stroke:#00AEEF;stroke-width:0.5;opacity:1.0;" x1="776" x2="776" y1="1919" y2="1933"/>
  <g transform="matrix(0.2 0 0 0.2 776 1933)">
   <path d="m16.5527 0.78125c2.58789 0 3.85742-0.976562 4.78516-3.71094l20.5566-57.5195h0.244141l20.6055 57.5195c0.927734 2.73438 2.19727 3.71094 4.73633 3.71094 2.58789 0 4.24805-1.5625 4.24805-4.00391 0-0.830078-0.146484-1.61133-0.537109-2.63672l-22.9004-60.9863c-1.12305-2.97852-3.125-4.49219-6.25-4.49219-3.02734 0-5.07812 1.46484-6.15234 4.44336l-22.9004 61.084c-0.390625 1.02539-0.537109 1.80664-0.537109 2.63672 0 2.44141 1.5625 3.95508 4.10156 3.95508Zm10.2051-20.9473h30.6641c2.00195 0 3.66211-1.66016 3.66211-3.66211 0-2.05078-1.66016-3.66211-3.66211-3.66211h-30.6641c-2.00195 0-3.66211 1.61133-3.66211 3.66211 0 2.00195 1.66016 3.66211 3.66211 3.66211Z"/>
  </g>
  <line style="fill:none;stroke:#00AEEF;stroke-width:0.5;opacity:1.0;" x1="792.836" x2="792.836" y1="1919" y2="1933"/>
  <text style="stroke:none;fill:black;font-family:sans-serif;font-size:13;font-weight:bold;" transform="matrix(1 0 0 1 776 1953)">Margins</text>
  <text style="stroke:none;fill:black;font-family:sans-serif;font-size:13;" transform="matrix(1 0 0 1 776 1971)">Leading and trailing margins on the left and right side of each symbol</text>
  <text style="stroke:none;fill:black;font-family:sans-serif;font-size:13;" transform="matrix(1 0 0 1 776 1989)">can be adjusted by modifying the x-location of the margin guidelines.</text>
  <text style="stroke:none;fill:black;font-family:sans-serif;font-size:13;" transform="matrix(1 0 0 1 776 2007)">Modifications are automatically applied proportionally to all</text>
  <text style="stroke:none;fill:black;font-family:sans-serif;font-size:13;" transform="matrix(1 0 0 1 776 2025)">scales and weights.</text>
  <g transform="matrix(0.2 0 0 0.2 1289 1933)">
   <path d="m14.209 13.1348 7.86133 7.86133c4.29688 4.39453 9.32617 4.10156 13.8672-1.02539l60.6934-68.2129-4.88281-4.88281-60.2539 67.6758c-1.80664 1.95312-3.4668 2.44141-5.81055 0.0976562l-5.17578-5.12695c-2.29492-2.29492-1.80664-3.95508 0.195312-5.81055l67.4805-62.1582-4.88281-4.83398-68.0664 62.5977c-4.98047 4.58984-5.32227 9.47266-1.02539 13.8184Zm44.873-97.4609c-2.05078 2.00195-2.24609 4.88281-1.07422 6.78711 1.12305 1.80664 3.4668 3.02734 6.5918 2.24609 5.85938-1.66016 12.5977-2.39258 18.8965 0.927734l-2.68555 7.12891c-1.61133 4.00391-0.732422 6.88477 1.70898 9.42383l10.2539 10.3027c2.34375 2.39258 4.54102 2.44141 7.08008 1.95312l4.44336-0.732422 2.58789 2.53906-0.195312 2.24609c-0.0976562 2.29492 0.537109 4.29688 2.7832 6.49414l3.36914 3.32031c2.29492 2.29492 5.51758 2.49023 7.8125 0.195312l12.9883-13.0371c2.29492-2.34375 2.14844-5.37109-0.195312-7.66602l-3.41797-3.41797c-2.19727-2.19727-4.05273-3.02734-6.34766-2.88086l-2.34375 0.244141-2.44141-2.44141 1.02539-4.6875c0.634766-2.73438-0.244141-4.98047-2.88086-7.61719l-11.2793-11.1816c-12.9395-12.8418-35.5957-11.0352-46.6797-0.146484Zm7.08008 2.05078c8.78906-6.39648 25.9766-5.66406 33.6914 1.95312l12.3047 12.207c1.02539 1.02539 1.2207 1.80664 0.927734 3.32031l-1.46484 6.64062 6.73828 6.68945 4.39453-0.244141c1.12305-0.0488281 1.51367 0.0488281 2.34375 0.878906l2.53906 2.49023-10.8398 10.8398-2.49023-2.49023c-0.830078-0.878906-0.976562-1.2207-0.927734-2.39258l0.292969-4.3457-6.68945-6.73828-6.83594 1.17188c-1.41602 0.292969-2.05078 0.195312-3.17383-0.878906l-8.93555-8.88672c-1.07422-1.02539-1.17188-1.70898-0.488281-3.36914l4.58984-11.4746c-6.10352-6.34766-17.041-7.51953-25.5859-4.58984-0.683594 0.244141-0.927734-0.390625-0.390625-0.78125Z"/>
  </g>
  <text style="stroke:none;fill:black;font-family:sans-serif;font-size:13;font-weight:bold;" transform="matrix(1 0 0 1 1289 1953)">Exporting</text>
  <text style="stroke:none;fill:black;font-family:sans-serif;font-size:13;" transform="matrix(1 0 0 1 1289 1971)">Symbols should be outlined when exporting to ensure the</text>
  <text style="stroke:none;fill:black;font-family:sans-serif;font-size:13;" transform="matrix(1 0 0 1 1289 1989)">design is preserved when submitting to Xcode.</text>
  <text id="template-version" style="stroke:none;fill:black;font-family:sans-serif;font-size:13;text-anchor:end;" transform="matrix(1 0 0 1 3036 1933)">Template v.7.0</text>
  <text style="stroke:none;fill:black;font-family:sans-serif;font-size:13;text-anchor:end;" transform="matrix(1 0 0 1 3036 1951)">Requires Xcode 17 or greater</text>
  <text id="descriptive-name" style="stroke:none;fill:black;font-family:sans-serif;font-size:13;text-anchor:end;" transform="matrix(1 0 0 1 3036 1969)">Generated from app.circle.chinendar</text>
  <text style="stroke:none;fill:black;font-family:sans-serif;font-size:13;text-anchor:end;" transform="matrix(1 0 0 1 3036 1987)">Typeset at 100.0 points</text>
  <text style="stroke:none;fill:black;font-family:sans-serif;font-size:13;" transform="matrix(1 0 0 1 263 726)">Small</text>
  <text style="stroke:none;fill:black;font-family:sans-serif;font-size:13;" transform="matrix(1 0 0 1 263 1156)">Medium</text>
  <text style="stroke:none;fill:black;font-family:sans-serif;font-size:13;" transform="matrix(1 0 0 1 263 1586)">Large</text>
 </g>
 <g id="Guides">
  <g id="H-reference" style="fill:#27AAE1;stroke:none;" transform="matrix(1 0 0 1 339 696)">
   <path d="M0.993654 0L3.63775 0L29.3281-67.1323L30.0303-67.1323L30.0303-70.459L28.1226-70.459ZM11.6885-24.4799L46.9815-24.4799L46.2315-26.7285L12.4385-26.7285ZM55.1196 0L57.7637 0L30.6382-70.459L29.4326-70.459L29.4326-67.1323Z"/>
  </g>
  <line id="Baseline-S" style="fill:none;stroke:#27AAE1;opacity:1;stroke-width:0.5;" x1="263" x2="3036" y1="696" y2="696"/>
  <line id="Capline-S" style="fill:none;stroke:#27AAE1;opacity:1;stroke-width:0.5;" x1="263" x2="3036" y1="625.541" y2="625.541"/>
  <g id="H-reference" style="fill:#27AAE1;stroke:none;" transform="matrix(1 0 0 1 339 1126)">
   <path d="M0.993654 0L3.63775 0L29.3281-67.1323L30.0303-67.1323L30.0303-70.459L28.1226-70.459ZM11.6885-24.4799L46.9815-24.4799L46.2315-26.7285L12.4385-26.7285ZM55.1196 0L57.7637 0L30.6382-70.459L29.4326-70.459L29.4326-67.1323Z"/>
  </g>
  <line id="Baseline-M" style="fill:none;stroke:#27AAE1;opacity:1;stroke-width:0.5;" x1="263" x2="3036" y1="1126" y2="1126"/>
  <line id="Capline-M" style="fill:none;stroke:#27AAE1;opacity:1;stroke-width:0.5;" x1="263" x2="3036" y1="1055.54" y2="1055.54"/>
  <g id="H-reference" style="fill:#27AAE1;stroke:none;" transform="matrix(1 0 0 1 339 1556)">
   <path d="M0.993654 0L3.63775 0L29.3281-67.1323L30.0303-67.1323L30.0303-70.459L28.1226-70.459ZM11.6885-24.4799L46.9815-24.4799L46.2315-26.7285L12.4385-26.7285ZM55.1196 0L57.7637 0L30.6382-70.459L29.4326-70.459L29.4326-67.1323Z"/>
  </g>
  <line id="Baseline-L" style="fill:none;stroke:#27AAE1;opacity:1;stroke-width:0.5;" x1="263" x2="3036" y1="1556" y2="1556"/>
  <line id="Capline-L" style="fill:none;stroke:#27AAE1;opacity:1;stroke-width:0.5;" x1="263" x2="3036" y1="1485.54" y2="1485.54"/>
  <line id="right-margin-Black-S" style="fill:none;stroke:#00AEEF;stroke-width:0.5;opacity:1.0;" x1="2980.8" x2="2980.8" y1="600.785" y2="720.121"/>
  <line id="left-margin-Black-S" style="fill:none;stroke:#00AEEF;stroke-width:0.5;opacity:1.0;" x1="2886" x2="2886" y1="600.785" y2="720.121"/>
  <line id="right-margin-Regular-S" style="fill:none;stroke:#00AEEF;stroke-width:0.5;opacity:1.0;" x1="1495.34" x2="1495.34" y1="600.785" y2="720.121"/>
  <line id="left-margin-Regular-S" style="fill:none;stroke:#00AEEF;stroke-width:0.5;opacity:1.0;" x1="1404.34" x2="1404.34" y1="600.785" y2="720.121"/>
  <line id="right-margin-Ultralight-S" style="fill:none;stroke:#00AEEF;stroke-width:0.5;opacity:1.0;" x1="602.611" x2="602.611" y1="600.785" y2="720.121"/>
  <line id="left-margin-Ultralight-S" style="fill:none;stroke:#00AEEF;stroke-width:0.5;opacity:1.0;" x1="516.811" x2="516.811" y1="600.785" y2="720.121"/>
 </g>
 <g id="Symbols">
  <g id="Black-S" transform="matrix(1 0 0 1 2886 696)">
   <path class="multicolor-0:quaternaryLabelColor hierarchical-0:tertiary SFSymbolsPreviewWireframe" d="M85.0003-34.9997L85.0003-34.9997C85.0003-55.9866 67.9871-72.9999 47.0002-72.9999C26.0133-72.9999 9.00009-55.9866 9.00009-34.9997L9.00009-34.9997C9.00009-14.0129 26.0133 3.00035 47.0002 3.00035C67.9871 3.00035 85.0003-14.0129 85.0003-34.9997Z"/>
   <path class="monochrome-0 multicolor-1:systemPurpleColor hierarchical-1:primary SFSymbolsPreviewWireframe" d="M83.0846-46.9363C84.3275-43.1821 85.0003-39.1697 85.0003-34.9997C85.0003-14.027 67.9729 3.00035 47.0002 3.00035C46.856 3.00035 46.7107 2.99923 46.5654 2.99811L46.5654-35.4222L83.0846-46.9363Z"/>
   <path class="multicolor-2:tertiaryLabelColor hierarchical-2:secondary SFSymbolsPreviewWireframe" d="M74.9414-34.9997L74.9414-34.9997C74.9414-50.4313 62.4317-62.941 47.0002-62.941C31.5687-62.941 19.0589-50.4313 19.0589-34.9997L19.0589-34.9997C19.0589-19.5682 31.5687-7.0585 47.0002-7.0585C62.4317-7.0585 74.9414-19.5682 74.9414-34.9997Z"/>
   <path class="monochrome-1 multicolor-3:systemPinkColor hierarchical-3:primary SFSymbolsPreviewWireframe" d="M58.6807-60.3861C68.2747-55.9602 74.9414-46.2523 74.9414-34.9997C74.9414-19.5784 62.4215-7.0585 47.0002-7.0585C46.8549-7.0585 46.7107-7.05962 46.5654-7.06185L46.5654-34.6678L58.6807-60.3861Z"/>
   <path class="monochrome-2 multicolor-4:tintColor hierarchical-4:primary SFSymbolsPreviewWireframe" d="M63.7645-35.0002L63.7645-35.0002C63.7645-44.2591 56.2587-51.765 46.9998-51.765C37.7409-51.765 30.235-44.2591 30.235-35.0002L30.235-35.0002C30.235-25.7413 37.7409-18.2355 46.9998-18.2355C56.2587-18.2355 63.7645-25.7413 63.7645-35.0002Z"/>
  </g>
  <g id="Regular-S" transform="matrix(1 0 0 1 1404.34 696)">
   <path class="multicolor-0:quaternaryLabelColor hierarchical-0:tertiary SFSymbolsPreviewWireframe" d="M81.6593-34.9997L81.6593-34.9997C81.6593-54.8819 65.5416-70.9996 45.6594-70.9996C25.7772-70.9996 9.6595-54.8819 9.6595-34.9997L9.6595-34.9997C9.6595-15.1175 25.7772 1.00018 45.6594 1.00018C65.5416 1.00018 81.6593-15.1175 81.6593-34.9997Z"/>
   <path class="monochrome-0 multicolor-1:systemPurpleColor hierarchical-1:primary SFSymbolsPreviewWireframe" d="M79.8444-46.3079C81.0218-42.7513 81.6593-38.9502 81.6593-34.9997C81.6593-15.1309 65.5281 1.00018 45.6594 1.00018C45.5228 1.00018 45.3851 0.999121 45.2475 0.998062L45.2475-35.3999L79.8444-46.3079Z"/>
   <path class="multicolor-2:tertiaryLabelColor hierarchical-2:secondary SFSymbolsPreviewWireframe" d="M72.1299-34.9997L72.1299-34.9997C72.1299-49.619 60.2786-61.4702 45.6594-61.4702C31.0401-61.4702 19.1889-49.619 19.1889-34.9997L19.1889-34.9997C19.1889-20.3804 31.0401-8.5292 45.6594-8.5292C60.2786-8.5292 72.1299-20.3804 72.1299-34.9997Z"/>
   <path class="monochrome-1 multicolor-3:systemPinkColor hierarchical-3:primary SFSymbolsPreviewWireframe" d="M56.7251-59.0497C65.814-54.8568 72.1299-45.6599 72.1299-34.9997C72.1299-20.3901 60.269-8.5292 45.6594-8.5292C45.5217-8.5292 45.3851-8.53026 45.2475-8.53238L45.2475-34.6852L56.7251-59.0497Z"/>
   <path class="monochrome-2 multicolor-4:tintColor hierarchical-4:primary SFSymbolsPreviewWireframe" d="M61.5413-35.0001L61.5413-35.0001C61.5413-43.7717 54.4306-50.8824 45.659-50.8824C36.8875-50.8824 29.7767-43.7717 29.7767-35.0001L29.7767-35.0001C29.7767-26.2286 36.8875-19.1178 45.659-19.1178C54.4306-19.1178 61.5413-26.2286 61.5413-35.0001Z"/>
  </g>
  <g id="Ultralight-S" transform="matrix(1 0 0 1 516.811 696)">
   <path class="multicolor-0:quaternaryLabelColor hierarchical-0:tertiary SFSymbolsPreviewWireframe" d="M76.1889-35.5003L76.1889-35.5003C76.1889-54.0018 61.1904-69.0003 42.6889-69.0003C24.1873-69.0003 9.18887-54.0018 9.18887-35.5003L9.18887-35.5003C9.18887-16.9988 24.1873-2.00029 42.6889-2.00029C61.1904-2.00029 76.1889-16.9988 76.1889-35.5003Z"/>
   <path class="monochrome-0 multicolor-1:systemPurpleColor hierarchical-1:primary SFSymbolsPreviewWireframe" d="M74.5001-46.0232C75.5957-42.7136 76.1889-39.1764 76.1889-35.5003C76.1889-17.0112 61.1779-2.00029 42.6889-2.00029C42.5618-2.00029 42.4337-2.00128 42.3056-2.00226L42.3056-35.8727L74.5001-46.0232Z"/>
   <path class="multicolor-2:tertiaryLabelColor hierarchical-2:secondary SFSymbolsPreviewWireframe" d="M67.3212-35.5003L67.3212-35.5003C67.3212-49.1044 56.2929-60.1326 42.6889-60.1326C29.0848-60.1326 18.0565-49.1044 18.0565-35.5003L18.0565-35.5003C18.0565-21.8962 29.0848-10.8679 42.6889-10.8679C56.2929-10.8679 67.3212-21.8962 67.3212-35.5003Z"/>
   <path class="monochrome-1 multicolor-3:systemPinkColor hierarchical-3:primary SFSymbolsPreviewWireframe" d="M52.9862-57.8803C61.4439-53.9785 67.3212-45.4202 67.3212-35.5003C67.3212-21.9052 56.2839-10.8679 42.6889-10.8679C42.5608-10.8679 42.4337-10.8689 42.3056-10.8709L42.3056-35.2077L52.9862-57.8803Z"/>
   <path class="monochrome-2 multicolor-4:tintColor hierarchical-4:primary SFSymbolsPreviewWireframe" d="M57.4679-35.5007L57.4679-35.5007C57.4679-43.6631 50.851-50.2801 42.6885-50.2801C34.5261-50.2801 27.9091-43.6631 27.9091-35.5007L27.9091-35.5007C27.9091-27.3382 34.5261-20.7213 42.6885-20.7213C50.851-20.7213 57.4679-27.3382 57.4679-35.5007Z"/>
  </g>
 </g>
 <g id="Anchors">
  <circle cx="2933.4" cy="660.771" id="Black-S-rotate-anchor" r="1" style="fill:#FFCC00; opacity:1.0;"/>
  <circle cx="1449.84" cy="660.771" id="Regular-S-rotate-anchor" r="1" style="fill:#FFCC00; opacity:1.0;"/>
  <circle cx="559.711" cy="660.771" id="Ultralight-S-rotate-anchor" r="1" style="fill:#FFCC00; opacity:1.0;"/>
 </g>
</svg>
